<mxfile host="app.diagrams.net" modified="2023-11-05T06:44:03.799Z" agent="Mozilla/5.0 (Windows NT 10.0; Win64; x64) AppleWebKit/537.36 (KHTML, like Gecko) Chrome/119.0.0.0 Safari/537.36" etag="2P67mVzJKcgeP4kjcBUP" version="22.0.8" type="github">
  <diagram name="第 1 页" id="7W-Vml-be71XeKP4XQ2E">
    <mxGraphModel dx="1488" dy="893" grid="0" gridSize="10" guides="1" tooltips="1" connect="1" arrows="1" fold="1" page="1" pageScale="1" pageWidth="1169" pageHeight="827" math="0" shadow="0">
      <root>
        <mxCell id="0" />
        <mxCell id="1" parent="0" />
      </root>
    </mxGraphModel>
  </diagram>
</mxfile>
